<?xml version="1.0" encoding="utf-8"?>
<!-- Generator: Adobe Illustrator 22.0.0, SVG Export Plug-In . SVG Version: 6.00 Build 0)  -->
<svg version="1.1" id="Calque_1" xmlns="http://www.w3.org/2000/svg" xmlns:xlink="http://www.w3.org/1999/xlink" x="0px" y="0px"
	 viewBox="0 0 500 500" style="enable-background:new 0 0 500 500;" xml:space="preserve">
<style type="text/css">
	.st0{fill:#E5E5E5;}
</style>
<g>
	<path d="M139.4,276.2l77.4-1.4l-0.5-8.3l91.4-2.2l1.2,20l-63.8-3l0.7,11.3L139.4,276.2z"/>
	<g>
	</g>
	<g>
	</g>
	<g>
	</g>
	<g>
	</g>
	<g>
	</g>
	<g>
	</g>
	<g>
	</g>
	<g>
	</g>
	<g>
	</g>
	<g>
	</g>
	<g>
	</g>
	<g>
	</g>
	<g>
	</g>
	<g>
	</g>
	<g>
	</g>
</g>
<g>
	<path class="st0" d="M254.7,281.5l7.9-6.5c0.7-0.6,1.4-1.2,1.9-1.6s0.9-1,1.3-1.4c0.3-0.4,0.6-0.9,0.7-1.3c0.1-0.4,0.2-0.9,0.2-1.4
		c0-1-0.3-1.8-0.9-2.3c-0.6-0.5-1.4-0.8-2.3-0.8c-0.9,0-1.8,0.3-2.5,0.8s-1.5,1.3-2.4,2.4l-3.7-3c0.6-0.8,1.2-1.5,1.8-2.1
		s1.2-1.1,1.9-1.6c0.7-0.4,1.5-0.7,2.3-1c0.8-0.2,1.8-0.3,2.9-0.3c1.2,0,2.3,0.2,3.3,0.5c1,0.4,1.9,0.8,2.6,1.5
		c0.7,0.6,1.3,1.4,1.7,2.3s0.6,1.9,0.6,3v0.1c0,1-0.1,1.9-0.4,2.7c-0.3,0.8-0.6,1.5-1.2,2.2c-0.5,0.7-1.2,1.4-2,2.1
		c-0.8,0.7-1.7,1.4-2.8,2.3l-3.9,3h10.4v4.5h-17.6V281.5z"/>
	<path class="st0" d="M284.9,286c-1.3,0-2.5-0.2-3.7-0.5c-1.1-0.3-2.1-0.8-2.9-1.4c-0.8-0.6-1.5-1.3-1.9-2.2
		c-0.5-0.8-0.7-1.8-0.7-2.8v-0.1c0-1.5,0.3-2.6,1-3.5s1.6-1.6,2.9-2.2c-0.9-0.6-1.7-1.3-2.2-2.1c-0.5-0.8-0.8-1.9-0.8-3.1v-0.1
		c0-0.9,0.2-1.8,0.6-2.5c0.4-0.8,1-1.5,1.7-2.1s1.6-1.1,2.6-1.4c1-0.3,2.2-0.5,3.4-0.5c1.2,0,2.4,0.2,3.4,0.5s1.9,0.8,2.7,1.4
		c0.7,0.6,1.3,1.3,1.7,2.1s0.6,1.7,0.6,2.6v0.1c0,1.3-0.3,2.3-0.8,3.1c-0.5,0.8-1.3,1.5-2.2,2.1c1.2,0.6,2.1,1.4,2.8,2.2
		c0.7,0.8,1,2,1,3.4v0.1c0,1.1-0.2,2.1-0.7,3c-0.5,0.9-1.1,1.6-1.9,2.2c-0.8,0.6-1.8,1.1-2.9,1.4C287.4,285.9,286.2,286,284.9,286z
		 M284.9,281.7c1.3,0,2.3-0.3,3-0.8c0.7-0.6,1.1-1.3,1.1-2.1v-0.1c0-0.9-0.4-1.6-1.2-2.2c-0.8-0.5-1.8-0.8-3-0.8
		c-1.2,0-2.2,0.3-3,0.8c-0.8,0.5-1.2,1.2-1.2,2.2v0.1c0,0.8,0.4,1.5,1.1,2.1C282.6,281.4,283.6,281.7,284.9,281.7z M284.9,271.6
		c1,0,1.9-0.3,2.5-0.8c0.6-0.5,0.9-1.2,0.9-2.1v-0.1c0-0.7-0.3-1.4-0.9-1.9c-0.6-0.6-1.4-0.8-2.5-0.8s-1.9,0.3-2.5,0.8
		c-0.6,0.6-0.9,1.2-0.9,1.9v0.1c0,0.8,0.3,1.5,0.9,2.1C283,271.3,283.8,271.6,284.9,271.6z"/>
</g>
<g>
	<path d="M147.3,245.8h7.2c1.1,0,2,0.1,2.9,0.4c0.9,0.3,1.6,0.7,2.2,1.2c0.6,0.5,1.1,1.2,1.4,1.9c0.3,0.7,0.5,1.6,0.5,2.5v0.1
		c0,1-0.2,1.9-0.6,2.7s-0.9,1.4-1.6,1.9s-1.4,0.9-2.3,1.2c-0.9,0.3-1.8,0.4-2.8,0.4h-3.6v5.9h-3.2V245.8z M154.2,255.2
		c1.2,0,2.2-0.3,2.9-0.9c0.7-0.6,1.1-1.4,1.1-2.3v-0.1c0-1.1-0.4-1.9-1.1-2.4c-0.7-0.5-1.7-0.8-2.9-0.8h-3.7v6.6H154.2z"/>
	<path d="M173.4,264.3c-1.4,0-2.7-0.2-3.8-0.7s-2.2-1.2-3-2s-1.5-1.8-2-3c-0.5-1.1-0.7-2.3-0.7-3.6v-0.1c0-1.3,0.2-2.5,0.7-3.6
		c0.5-1.1,1.1-2.1,2-3c0.8-0.9,1.9-1.5,3-2c1.2-0.5,2.4-0.8,3.8-0.8c1.4,0,2.7,0.2,3.8,0.7s2.2,1.2,3,2s1.5,1.8,1.9,3
		c0.5,1.1,0.7,2.3,0.7,3.6v0.1c0,1.3-0.2,2.5-0.7,3.6c-0.5,1.1-1.1,2.1-2,3c-0.8,0.9-1.9,1.5-3,2C176.1,264,174.8,264.3,173.4,264.3
		z M173.4,261.4c0.9,0,1.7-0.2,2.5-0.5c0.8-0.3,1.4-0.8,1.9-1.4c0.5-0.6,1-1.3,1.3-2c0.3-0.8,0.5-1.6,0.5-2.5v-0.1
		c0-0.9-0.2-1.7-0.5-2.5s-0.7-1.5-1.3-2.1c-0.5-0.6-1.2-1-2-1.4c-0.8-0.3-1.6-0.5-2.5-0.5c-0.9,0-1.7,0.2-2.5,0.5
		c-0.8,0.3-1.4,0.8-1.9,1.4c-0.5,0.6-1,1.3-1.3,2c-0.3,0.8-0.5,1.6-0.5,2.5v0.1c0,0.9,0.2,1.7,0.5,2.5c0.3,0.8,0.7,1.5,1.3,2.1
		c0.5,0.6,1.2,1,2,1.4C171.7,261.2,172.5,261.4,173.4,261.4z"/>
	<path d="M185.4,245.8h3.5l4.3,13.5l4.5-13.5h2.7l4.5,13.5l4.3-13.5h3.4l-6.3,18.3h-2.8L199,251l-4.5,13.1h-2.8L185.4,245.8z"/>
	<path d="M215.8,245.8h13.5v2.9H219v4.7h9.1v2.9H219v4.9h10.4v2.9h-13.6V245.8z"/>
	<path d="M233.2,245.8h8.1c1.1,0,2.2,0.2,3,0.5c0.9,0.3,1.6,0.8,2.2,1.3c0.5,0.5,0.9,1.1,1.1,1.7c0.3,0.7,0.4,1.4,0.4,2.2v0.1
		c0,0.7-0.1,1.4-0.3,2c-0.2,0.6-0.5,1.1-0.9,1.6c-0.4,0.5-0.8,0.8-1.4,1.2c-0.5,0.3-1.1,0.6-1.8,0.7l4.9,6.9h-3.8l-4.5-6.3h-0.1h-4
		v6.3h-3.2V245.8z M241.1,254.8c1.1,0,2.1-0.3,2.7-0.8c0.7-0.5,1-1.3,1-2.2v-0.1c0-1-0.3-1.7-1-2.3c-0.7-0.5-1.6-0.8-2.8-0.8h-4.7
		v6.1H241.1z"/>
</g>
</svg>
