<?xml version="1.0" encoding="utf-8"?>
<!-- Generator: Adobe Illustrator 22.0.0, SVG Export Plug-In . SVG Version: 6.00 Build 0)  -->
<svg version="1.1" id="Calque_1" xmlns="http://www.w3.org/2000/svg" xmlns:xlink="http://www.w3.org/1999/xlink" x="0px" y="0px"
	 viewBox="0 0 500 500" style="enable-background:new 0 0 500 500;" xml:space="preserve">
<style type="text/css">
	.st0{fill:#FFFFFF;stroke:#000000;stroke-miterlimit:10;}
</style>
<g>
	<path d="M208.8,287.7l0.6-9.3l-63.7,1.7l1-16.4l91.4,2.8l-0.4,6.8l77.3,2L208.8,287.7z"/>
	<g>
	</g>
	<g>
	</g>
	<g>
	</g>
	<g>
	</g>
	<g>
	</g>
	<g>
	</g>
	<g>
	</g>
	<g>
	</g>
	<g>
	</g>
	<g>
	</g>
	<g>
	</g>
	<g>
	</g>
	<g>
	</g>
	<g>
	</g>
	<g>
	</g>
</g>
<g>
	<path class="st0" d="M261.7,285.5l9.3-7.6c0.9-0.7,1.6-1.4,2.2-1.9c0.6-0.6,1.1-1.1,1.5-1.6c0.4-0.5,0.7-1,0.8-1.5
		c0.2-0.5,0.3-1,0.3-1.6c0-1.2-0.3-2.1-1-2.7c-0.7-0.6-1.6-0.9-2.7-0.9c-1.1,0-2.1,0.3-2.9,0.9c-0.8,0.6-1.8,1.6-2.8,2.8l-4.3-3.5
		c0.7-0.9,1.4-1.8,2.1-2.5c0.7-0.7,1.5-1.3,2.3-1.8c0.8-0.5,1.7-0.9,2.7-1.1c1-0.3,2.1-0.4,3.4-0.4c1.4,0,2.8,0.2,3.9,0.6
		c1.2,0.4,2.2,1,3,1.7c0.8,0.7,1.5,1.7,2,2.7s0.7,2.3,0.7,3.6v0.1c0,1.2-0.2,2.2-0.5,3.1c-0.3,0.9-0.8,1.8-1.4,2.6
		c-0.6,0.8-1.4,1.6-2.3,2.4c-0.9,0.8-2,1.7-3.2,2.7l-4.6,3.5h12.2v5.3h-20.7V285.5z"/>
	<path class="st0" d="M297.2,290.8c-1.5,0-3-0.2-4.3-0.6c-1.3-0.4-2.5-0.9-3.4-1.6c-1-0.7-1.7-1.6-2.3-2.5c-0.5-1-0.8-2.1-0.8-3.3
		v-0.1c0-1.7,0.4-3.1,1.1-4.1c0.8-1.1,1.9-1.9,3.4-2.6c-1.1-0.7-2-1.5-2.6-2.4c-0.6-0.9-1-2.2-1-3.7v-0.1c0-1.1,0.2-2.1,0.7-3
		c0.5-0.9,1.1-1.7,2-2.4c0.9-0.7,1.9-1.2,3.1-1.6c1.2-0.4,2.5-0.6,4-0.6c1.5,0,2.8,0.2,4,0.6c1.2,0.4,2.3,0.9,3.1,1.6
		c0.9,0.7,1.5,1.5,2,2.4c0.5,0.9,0.7,2,0.7,3v0.1c0,1.5-0.3,2.8-1,3.7c-0.6,0.9-1.5,1.8-2.6,2.4c1.4,0.7,2.5,1.6,3.3,2.6
		c0.8,1,1.2,2.3,1.2,4v0.1c0,1.3-0.3,2.5-0.8,3.5c-0.5,1-1.3,1.9-2.3,2.6c-1,0.7-2.1,1.2-3.4,1.6
		C300.2,290.6,298.7,290.8,297.2,290.8z M297.2,285.7c1.5,0,2.7-0.3,3.6-1c0.9-0.7,1.3-1.5,1.3-2.5v-0.1c0-1.1-0.5-1.9-1.4-2.5
		c-0.9-0.6-2.1-0.9-3.5-0.9c-1.4,0-2.6,0.3-3.5,0.9c-0.9,0.6-1.4,1.4-1.4,2.5v0.1c0,1,0.4,1.8,1.3,2.5
		C294.5,285.4,295.7,285.7,297.2,285.7z M297.2,273.8c1.2,0,2.2-0.3,2.9-1c0.7-0.6,1.1-1.5,1.1-2.4v-0.1c0-0.9-0.3-1.6-1-2.3
		c-0.7-0.7-1.7-1-3-1c-1.3,0-2.3,0.3-3,1c-0.7,0.7-1,1.4-1,2.3v0.1c0,1,0.4,1.8,1.1,2.5C295,273.5,296,273.8,297.2,273.8z"/>
</g>
<g>
	<path d="M147.3,229.3h11.2c1.7,0,3.2,0.2,4.5,0.7c1.3,0.4,2.5,1.1,3.4,1.9c0.9,0.8,1.7,1.8,2.2,3c0.5,1.2,0.8,2.5,0.8,3.9v0.1
		c0,1.6-0.3,3-0.9,4.2c-0.6,1.2-1.4,2.2-2.4,3c-1,0.8-2.2,1.4-3.6,1.9c-1.4,0.4-2.9,0.6-4.4,0.6h-5.7v9.2h-5V229.3z M158.1,244.1
		c1.9,0,3.4-0.5,4.5-1.4c1.1-1,1.7-2.2,1.7-3.7v-0.1c0-1.7-0.6-3-1.7-3.8c-1.1-0.9-2.6-1.3-4.5-1.3h-5.8v10.3H158.1z"/>
	<path d="M188.1,258.3c-2.2,0-4.2-0.4-6-1.2c-1.8-0.8-3.4-1.8-4.7-3.2c-1.3-1.3-2.3-2.9-3.1-4.7c-0.7-1.8-1.1-3.7-1.1-5.7v-0.1
		c0-2,0.4-3.9,1.1-5.7c0.7-1.8,1.8-3.3,3.1-4.7c1.3-1.3,2.9-2.4,4.7-3.2c1.8-0.8,3.8-1.2,6-1.2c2.2,0,4.2,0.4,6,1.2
		c1.8,0.8,3.4,1.8,4.7,3.2s2.3,2.9,3.1,4.7c0.7,1.8,1.1,3.7,1.1,5.7v0.1c0,2-0.4,3.9-1.1,5.7c-0.7,1.8-1.8,3.3-3.1,4.7
		c-1.3,1.3-2.9,2.4-4.7,3.2C192.3,257.9,190.3,258.3,188.1,258.3z M188.2,253.7c1.4,0,2.7-0.3,3.9-0.8c1.2-0.5,2.2-1.2,3-2.2
		c0.8-0.9,1.5-2,2-3.2c0.5-1.2,0.7-2.5,0.7-3.9v-0.1c0-1.4-0.2-2.7-0.7-3.9c-0.5-1.2-1.1-2.3-2-3.2c-0.9-0.9-1.9-1.6-3.1-2.2
		c-1.2-0.5-2.5-0.8-3.9-0.8c-1.4,0-2.7,0.3-3.9,0.8c-1.2,0.5-2.2,1.2-3,2.2c-0.8,0.9-1.5,2-2,3.2c-0.5,1.2-0.7,2.5-0.7,3.9v0.1
		c0,1.4,0.2,2.7,0.7,3.9c0.5,1.2,1.1,2.3,2,3.2c0.9,0.9,1.9,1.6,3.1,2.2C185.5,253.4,186.8,253.7,188.2,253.7z"/>
	<path d="M206.9,229.3h5.4l6.8,21.1l7-21.2h4.2l7,21.2l6.8-21.1h5.3l-9.9,28.7h-4.3l-7-20.5l-7,20.5h-4.3L206.9,229.3z"/>
	<path d="M254.6,229.3h21.1v4.5h-16.1v7.3h14.3v4.5h-14.3v7.6h16.3v4.5h-21.3V229.3z"/>
	<path d="M281.8,229.3h12.7c1.8,0,3.4,0.3,4.8,0.8c1.4,0.5,2.5,1.2,3.5,2.1c0.8,0.8,1.3,1.7,1.7,2.7c0.4,1,0.6,2.2,0.6,3.4v0.1
		c0,1.2-0.2,2.2-0.5,3.2c-0.3,0.9-0.8,1.8-1.4,2.5c-0.6,0.7-1.3,1.3-2.1,1.8c-0.8,0.5-1.7,0.9-2.7,1.2l7.7,10.8h-5.9l-7-9.9H293
		h-6.2v9.9h-5V229.3z M294.1,243.4c1.8,0,3.2-0.4,4.3-1.3c1.1-0.9,1.6-2,1.6-3.5v-0.1c0-1.6-0.5-2.7-1.6-3.5c-1-0.8-2.5-1.2-4.4-1.2
		h-7.3v9.6H294.1z"/>
</g>
</svg>
